<?xml version="1.0" encoding="utf-8"?>
<svg version="1.1" xmlns:xlink="http://www.w3.org/1999/xlink" width="38px" height="38px" xmlns="http://www.w3.org/2000/svg">
  <defs>
    <pattern id="BGPattern" patternUnits="userSpaceOnUse" alignment="0 0" imageRepeat="None" />
    <mask fill="white" id="Clip99">
      <path d="M 14.423139205333861 19.60665761757156  C 14.240350361518791 19.68281061150188  14.07444889243028 19.79440163370205  13.935004437445748 19.934994239331942  C 13.87049657415813 20.00627407997158  13.810385694385516 20.081412316290788  13.755004643439362 20.159993602754515  C 13.698235035502785 20.243611383403262  13.652836910354905 20.334407636215886  13.62000444030677 20.42999398327046  C 13.576756119244124 20.515022415467644  13.546423665892737 20.606022627865755  13.530005258559179 20.699994363786402  C 13.52264235314247 20.799858799468144  13.52264235314247 20.900129556171784  13.530005258559179 20.999993991853525  C 13.524935096938435 21.196758732530956  13.56603310785854 21.3919735479967  13.650005121230102 21.569992569925528  C 13.71737316314315 21.75613622415341  13.824853599695473 21.925188422745205  13.964832026513667 22.06516683621402  C 14.104810453331861 22.205145249682833  14.273861237534526 22.312625675985025  14.460004909514444 22.379993711473357  C 14.639555534179346 22.459351491636802  14.833698870668627 22.50034260740015  15.03000497245694 22.50034260740015  C 15.226311074245247 22.50034260740015  15.420452980223327 22.459351491636802  15.60000360488823 22.379993711473357  C 15.786147276868148 22.312625675985025  15.955198061070812 22.205145249682833  16.095176487889006 22.06516683621402  C 16.2351549147072 21.925188422745205  16.34263535125952 21.75613622415341  16.41000339317257 21.569992569925528  C 16.476612319787773 21.38760841053603  16.507178453570095 21.194028155128052  16.500004005431364 20.999993991853525  C 16.50114534487057 20.802584090685627  16.46330705128118 20.60689076926853  16.388660166042296 20.42413460994684  C 16.31401328080341 20.24137845062515  16.20402618629433 20.07515430535432  16.06500414562146 19.934994239331942  C 15.92555969063693 19.79440163370205  15.759658221548419 19.68281061150188  15.57686937773335 19.60665761757156  C 15.394080533918281 19.530504623641242  15.198022067030035 19.491296913729602  15.000004291533605 19.4912969137296  C 14.801986516037175 19.491296913729602  14.60592804914893 19.530504623641242  14.423139205333861 19.60665761757156  Z M 20.740255214642485 1.1418067526416533  C 18.920371738362935 0.38798642979056464  16.96983198502884 0  15.000004291533605 0  C 12.033285170405355 0  9.133188711035022 0.87973444326369  6.666451851567869 2.5279551664480686  C 4.199714992100717 4.1761758896324475  2.2771278746837855 6.518854481547981  1.1418135670540681 9.259745332790757  C 0.006499259424350701 12.000636184033533  -0.290550705506667 15.016635055551038  0.2882275106115321 17.92634927949449  C 0.8670057267297313 20.83606350343795  2.295616963745696 23.50880731092244  4.393404241866256 25.606594388982472  C 6.491191519986817 27.704381467042506  9.16393593999177 29.132993886567913  12.073650441427146 29.711772047489536  C 14.983364942862522 30.29055020841116  17.999364102008037 29.99350029416076  20.740255214642485 28.85818609480302  C 23.48114632727693 27.72287189544528  25.82382263921306 25.800283262648605  27.472043519583984 23.333546638427745  C 29.12026439995491 20.866810014206884  30 17.966714546666754  30 14.999995708466805  C 29.999999999999996 13.030168202828923  29.612014963719375 11.079628635512744  28.85819456897839 9.259745332790757  C 28.104374174237407 7.439862030068771  26.99948102841739 5.7862753704713725  25.60660255306195 4.393397027951138  C 24.213724077706512 3.000518685430903  22.560138690922034 1.895627075492742  20.740255214642485 1.1418067526416533  Z M 23.485284617369725 23.485275225083765  C 21.23484856179265 25.735711066042597  18.18260167930571 26.999992275240245  15.000004291533605 26.99999227524025  C 12.626629030393785 26.99999227524025  10.306551397981377 26.29620380867849  8.333161910407656 24.977627283775153  C 6.3597724228339345 23.659050758871814  4.821703408393209 21.784907903220777  3.913451998052216 19.592195150701002  C 3.0052005877112222 17.399482398181227  2.7675606247071025 14.986684266562195  3.230583170779577 12.658912851644654  C 3.6936057168520513 10.331141436727114  4.836494178963818 8.192946533790627  6.514723965697486 6.514716907105377  C 8.192953752431153 4.836487280420128  10.331149574537358 3.6935985696749016  12.658921211448439 3.2305760677596855  C 14.98669284835952 2.7675535658444694  17.39949121008087 3.005193506185482  19.592204171713988 3.9134448299088964  C 21.784917133347104 4.821696153632311  23.659058737219098 6.359765379019153  24.97763538787167 8.333154678395841  C 26.29621203852424 10.30654397777253  27.00000057220448 12.626620673669624  27.00000057220448 14.999995708466805  C 27.000000572204478 18.182592792722858  25.7357206729468 21.234839384124932  23.485284617369725 23.485275225083765  Z M 17.87849323682914 8.57027047054182  C 17.07418232337335 7.887017169136858  16.05531663435619 7.508185402476643  15.000004291533605 7.499997854233403  C 14.209600271539635 7.499491091191967  13.43300493147279 7.7071787718261415  12.748368215872151 8.102161473609502  C 12.063731500271512 8.497144175392863  11.495205713232858 9.06548707101715  11.100003747939349 9.749997210503423  C 10.991473064707886 9.920724056990418  10.918599733962466 10.111640153177218  10.885766098830013 10.311261088010477  C 10.85293246369756 10.510882022843736  10.86081736879852 10.715082090652345  10.908947532854551 10.911576487090162  C 10.957077696910583 11.10807088352798  11.044458037330763 11.29279977348811  11.165831581910785 11.454648555379327  C 11.287205126490807 11.616497337270545  11.440063194441663 11.752122001487875  11.61521094032079 11.853363460532153  C 11.790358686199916 11.95460491957643  11.984177285470526 12.019370182090887  12.185004294394627 12.043764483328491  C 12.385831303318728 12.068158784566096  12.589518373521638 12.051677528512352  12.783810561406982 11.995311643034466  C 12.978102749292326 11.93894575755658  13.158984386399386 11.843860050259337  13.315575920948806 11.715775475756987  C 13.472167455498226 11.587690901254636  13.601232232961467 11.429254379992425  13.695004712103898 11.249996781350104  C 13.827161148374339 11.021090334580327  14.0174575831971 10.831169505291365  14.246624136614964 10.699464597855206  C 14.475790690032827 10.567759690419047  14.735689340281136 10.498947645076116  15.000004291533605 10.499996995926763  C 15.39782896500512 10.499996995926763  15.779359467688183 10.658032504704236  16.060663974635318 10.93933698482409  C 16.34196848158245 11.220641464943943  16.500004005431364 11.602171931241436  16.500004005431364 11.999996566773444  C 16.500004005431364 12.397821202305451  16.34196848158245 12.779351668602944  16.060663974635318 13.060656148722797  C 15.779359467688183 13.341960628842651  15.39782896500512 13.499996137620125  15.000004291533605 13.499996137620125  C 14.602179618062092 13.499996137620125  14.220649115379027 13.658031646397598  13.939344608431892 13.939336126517452  C 13.658040101484756 14.220640606637305  13.500004577635845 14.602171072934798  13.500004577635845 14.999995708466805  C 13.500004577635845 14.999995708466805  13.500004577635845 16.499995279313485  13.500004577635845 16.499995279313485  C 13.500004577635845 16.897819914845492  13.658040101484756 17.279350381142986  13.939344608431892 17.56065486126284  C 14.220649115379027 17.841959341382694  14.602179618062092 17.999994850160164  15.000004291533605 17.999994850160164  C 15.39782896500512 17.999994850160164  15.779359467688183 17.841959341382694  16.060663974635318 17.56065486126284  C 16.34196848158245 17.279350381142986  16.500004005431364 16.897819914845492  16.500004005431364 16.499995279313485  C 16.500004005431364 16.499995279313485  16.500004005431364 16.229994898797543  16.500004005431364 16.229994898797543  C 17.492059232319026 15.870026011697956  18.32604028920359 15.172835419797302  18.856160382049488 14.26029846373602  C 19.386280474895386 13.34776150767474  19.578812597560866 12.277934137935409  19.4001008224295 11.23783171525048  C 19.221389047298135 10.19772929256555  18.68280415028493 9.253523771946782  17.87849323682914 8.57027047054182  Z " fill-rule="evenodd" />
    </mask>
  </defs>
  <g transform="matrix(1 0 0 1 -283 -32 )">
    <path d="M 14.423139205333861 19.60665761757156  C 14.240350361518791 19.68281061150188  14.07444889243028 19.79440163370205  13.935004437445748 19.934994239331942  C 13.87049657415813 20.00627407997158  13.810385694385516 20.081412316290788  13.755004643439362 20.159993602754515  C 13.698235035502785 20.243611383403262  13.652836910354905 20.334407636215886  13.62000444030677 20.42999398327046  C 13.576756119244124 20.515022415467644  13.546423665892737 20.606022627865755  13.530005258559179 20.699994363786402  C 13.52264235314247 20.799858799468144  13.52264235314247 20.900129556171784  13.530005258559179 20.999993991853525  C 13.524935096938435 21.196758732530956  13.56603310785854 21.3919735479967  13.650005121230102 21.569992569925528  C 13.71737316314315 21.75613622415341  13.824853599695473 21.925188422745205  13.964832026513667 22.06516683621402  C 14.104810453331861 22.205145249682833  14.273861237534526 22.312625675985025  14.460004909514444 22.379993711473357  C 14.639555534179346 22.459351491636802  14.833698870668627 22.50034260740015  15.03000497245694 22.50034260740015  C 15.226311074245247 22.50034260740015  15.420452980223327 22.459351491636802  15.60000360488823 22.379993711473357  C 15.786147276868148 22.312625675985025  15.955198061070812 22.205145249682833  16.095176487889006 22.06516683621402  C 16.2351549147072 21.925188422745205  16.34263535125952 21.75613622415341  16.41000339317257 21.569992569925528  C 16.476612319787773 21.38760841053603  16.507178453570095 21.194028155128052  16.500004005431364 20.999993991853525  C 16.50114534487057 20.802584090685627  16.46330705128118 20.60689076926853  16.388660166042296 20.42413460994684  C 16.31401328080341 20.24137845062515  16.20402618629433 20.07515430535432  16.06500414562146 19.934994239331942  C 15.92555969063693 19.79440163370205  15.759658221548419 19.68281061150188  15.57686937773335 19.60665761757156  C 15.394080533918281 19.530504623641242  15.198022067030035 19.491296913729602  15.000004291533605 19.4912969137296  C 14.801986516037175 19.491296913729602  14.60592804914893 19.530504623641242  14.423139205333861 19.60665761757156  Z M 20.740255214642485 1.1418067526416533  C 18.920371738362935 0.38798642979056464  16.96983198502884 0  15.000004291533605 0  C 12.033285170405355 0  9.133188711035022 0.87973444326369  6.666451851567869 2.5279551664480686  C 4.199714992100717 4.1761758896324475  2.2771278746837855 6.518854481547981  1.1418135670540681 9.259745332790757  C 0.006499259424350701 12.000636184033533  -0.290550705506667 15.016635055551038  0.2882275106115321 17.92634927949449  C 0.8670057267297313 20.83606350343795  2.295616963745696 23.50880731092244  4.393404241866256 25.606594388982472  C 6.491191519986817 27.704381467042506  9.16393593999177 29.132993886567913  12.073650441427146 29.711772047489536  C 14.983364942862522 30.29055020841116  17.999364102008037 29.99350029416076  20.740255214642485 28.85818609480302  C 23.48114632727693 27.72287189544528  25.82382263921306 25.800283262648605  27.472043519583984 23.333546638427745  C 29.12026439995491 20.866810014206884  30 17.966714546666754  30 14.999995708466805  C 29.999999999999996 13.030168202828923  29.612014963719375 11.079628635512744  28.85819456897839 9.259745332790757  C 28.104374174237407 7.439862030068771  26.99948102841739 5.7862753704713725  25.60660255306195 4.393397027951138  C 24.213724077706512 3.000518685430903  22.560138690922034 1.895627075492742  20.740255214642485 1.1418067526416533  Z M 23.485284617369725 23.485275225083765  C 21.23484856179265 25.735711066042597  18.18260167930571 26.999992275240245  15.000004291533605 26.99999227524025  C 12.626629030393785 26.99999227524025  10.306551397981377 26.29620380867849  8.333161910407656 24.977627283775153  C 6.3597724228339345 23.659050758871814  4.821703408393209 21.784907903220777  3.913451998052216 19.592195150701002  C 3.0052005877112222 17.399482398181227  2.7675606247071025 14.986684266562195  3.230583170779577 12.658912851644654  C 3.6936057168520513 10.331141436727114  4.836494178963818 8.192946533790627  6.514723965697486 6.514716907105377  C 8.192953752431153 4.836487280420128  10.331149574537358 3.6935985696749016  12.658921211448439 3.2305760677596855  C 14.98669284835952 2.7675535658444694  17.39949121008087 3.005193506185482  19.592204171713988 3.9134448299088964  C 21.784917133347104 4.821696153632311  23.659058737219098 6.359765379019153  24.97763538787167 8.333154678395841  C 26.29621203852424 10.30654397777253  27.00000057220448 12.626620673669624  27.00000057220448 14.999995708466805  C 27.000000572204478 18.182592792722858  25.7357206729468 21.234839384124932  23.485284617369725 23.485275225083765  Z M 17.87849323682914 8.57027047054182  C 17.07418232337335 7.887017169136858  16.05531663435619 7.508185402476643  15.000004291533605 7.499997854233403  C 14.209600271539635 7.499491091191967  13.43300493147279 7.7071787718261415  12.748368215872151 8.102161473609502  C 12.063731500271512 8.497144175392863  11.495205713232858 9.06548707101715  11.100003747939349 9.749997210503423  C 10.991473064707886 9.920724056990418  10.918599733962466 10.111640153177218  10.885766098830013 10.311261088010477  C 10.85293246369756 10.510882022843736  10.86081736879852 10.715082090652345  10.908947532854551 10.911576487090162  C 10.957077696910583 11.10807088352798  11.044458037330763 11.29279977348811  11.165831581910785 11.454648555379327  C 11.287205126490807 11.616497337270545  11.440063194441663 11.752122001487875  11.61521094032079 11.853363460532153  C 11.790358686199916 11.95460491957643  11.984177285470526 12.019370182090887  12.185004294394627 12.043764483328491  C 12.385831303318728 12.068158784566096  12.589518373521638 12.051677528512352  12.783810561406982 11.995311643034466  C 12.978102749292326 11.93894575755658  13.158984386399386 11.843860050259337  13.315575920948806 11.715775475756987  C 13.472167455498226 11.587690901254636  13.601232232961467 11.429254379992425  13.695004712103898 11.249996781350104  C 13.827161148374339 11.021090334580327  14.0174575831971 10.831169505291365  14.246624136614964 10.699464597855206  C 14.475790690032827 10.567759690419047  14.735689340281136 10.498947645076116  15.000004291533605 10.499996995926763  C 15.39782896500512 10.499996995926763  15.779359467688183 10.658032504704236  16.060663974635318 10.93933698482409  C 16.34196848158245 11.220641464943943  16.500004005431364 11.602171931241436  16.500004005431364 11.999996566773444  C 16.500004005431364 12.397821202305451  16.34196848158245 12.779351668602944  16.060663974635318 13.060656148722797  C 15.779359467688183 13.341960628842651  15.39782896500512 13.499996137620125  15.000004291533605 13.499996137620125  C 14.602179618062092 13.499996137620125  14.220649115379027 13.658031646397598  13.939344608431892 13.939336126517452  C 13.658040101484756 14.220640606637305  13.500004577635845 14.602171072934798  13.500004577635845 14.999995708466805  C 13.500004577635845 14.999995708466805  13.500004577635845 16.499995279313485  13.500004577635845 16.499995279313485  C 13.500004577635845 16.897819914845492  13.658040101484756 17.279350381142986  13.939344608431892 17.56065486126284  C 14.220649115379027 17.841959341382694  14.602179618062092 17.999994850160164  15.000004291533605 17.999994850160164  C 15.39782896500512 17.999994850160164  15.779359467688183 17.841959341382694  16.060663974635318 17.56065486126284  C 16.34196848158245 17.279350381142986  16.500004005431364 16.897819914845492  16.500004005431364 16.499995279313485  C 16.500004005431364 16.499995279313485  16.500004005431364 16.229994898797543  16.500004005431364 16.229994898797543  C 17.492059232319026 15.870026011697956  18.32604028920359 15.172835419797302  18.856160382049488 14.26029846373602  C 19.386280474895386 13.34776150767474  19.578812597560866 12.277934137935409  19.4001008224295 11.23783171525048  C 19.221389047298135 10.19772929256555  18.68280415028493 9.253523771946782  17.87849323682914 8.57027047054182  Z " fill-rule="nonzero" fill="rgba(250, 218, 221, 1)" stroke="none" transform="matrix(1 0 0 1 287 32 )" class="fill" />
    <path d="M 14.423139205333861 19.60665761757156  C 14.240350361518791 19.68281061150188  14.07444889243028 19.79440163370205  13.935004437445748 19.934994239331942  C 13.87049657415813 20.00627407997158  13.810385694385516 20.081412316290788  13.755004643439362 20.159993602754515  C 13.698235035502785 20.243611383403262  13.652836910354905 20.334407636215886  13.62000444030677 20.42999398327046  C 13.576756119244124 20.515022415467644  13.546423665892737 20.606022627865755  13.530005258559179 20.699994363786402  C 13.52264235314247 20.799858799468144  13.52264235314247 20.900129556171784  13.530005258559179 20.999993991853525  C 13.524935096938435 21.196758732530956  13.56603310785854 21.3919735479967  13.650005121230102 21.569992569925528  C 13.71737316314315 21.75613622415341  13.824853599695473 21.925188422745205  13.964832026513667 22.06516683621402  C 14.104810453331861 22.205145249682833  14.273861237534526 22.312625675985025  14.460004909514444 22.379993711473357  C 14.639555534179346 22.459351491636802  14.833698870668627 22.50034260740015  15.03000497245694 22.50034260740015  C 15.226311074245247 22.50034260740015  15.420452980223327 22.459351491636802  15.60000360488823 22.379993711473357  C 15.786147276868148 22.312625675985025  15.955198061070812 22.205145249682833  16.095176487889006 22.06516683621402  C 16.2351549147072 21.925188422745205  16.34263535125952 21.75613622415341  16.41000339317257 21.569992569925528  C 16.476612319787773 21.38760841053603  16.507178453570095 21.194028155128052  16.500004005431364 20.999993991853525  C 16.50114534487057 20.802584090685627  16.46330705128118 20.60689076926853  16.388660166042296 20.42413460994684  C 16.31401328080341 20.24137845062515  16.20402618629433 20.07515430535432  16.06500414562146 19.934994239331942  C 15.92555969063693 19.79440163370205  15.759658221548419 19.68281061150188  15.57686937773335 19.60665761757156  C 15.394080533918281 19.530504623641242  15.198022067030035 19.491296913729602  15.000004291533605 19.4912969137296  C 14.801986516037175 19.491296913729602  14.60592804914893 19.530504623641242  14.423139205333861 19.60665761757156  Z " stroke-width="0" stroke-dasharray="0" stroke="rgba(121, 121, 121, 1)" fill="none" transform="matrix(1 0 0 1 287 32 )" class="stroke" mask="url(#Clip99)" />
    <path d="M 20.740255214642485 1.1418067526416533  C 18.920371738362935 0.38798642979056464  16.96983198502884 0  15.000004291533605 0  C 12.033285170405355 0  9.133188711035022 0.87973444326369  6.666451851567869 2.5279551664480686  C 4.199714992100717 4.1761758896324475  2.2771278746837855 6.518854481547981  1.1418135670540681 9.259745332790757  C 0.006499259424350701 12.000636184033533  -0.290550705506667 15.016635055551038  0.2882275106115321 17.92634927949449  C 0.8670057267297313 20.83606350343795  2.295616963745696 23.50880731092244  4.393404241866256 25.606594388982472  C 6.491191519986817 27.704381467042506  9.16393593999177 29.132993886567913  12.073650441427146 29.711772047489536  C 14.983364942862522 30.29055020841116  17.999364102008037 29.99350029416076  20.740255214642485 28.85818609480302  C 23.48114632727693 27.72287189544528  25.82382263921306 25.800283262648605  27.472043519583984 23.333546638427745  C 29.12026439995491 20.866810014206884  30 17.966714546666754  30 14.999995708466805  C 29.999999999999996 13.030168202828923  29.612014963719375 11.079628635512744  28.85819456897839 9.259745332790757  C 28.104374174237407 7.439862030068771  26.99948102841739 5.7862753704713725  25.60660255306195 4.393397027951138  C 24.213724077706512 3.000518685430903  22.560138690922034 1.895627075492742  20.740255214642485 1.1418067526416533  Z " stroke-width="0" stroke-dasharray="0" stroke="rgba(121, 121, 121, 1)" fill="none" transform="matrix(1 0 0 1 287 32 )" class="stroke" mask="url(#Clip99)" />
    <path d="M 23.485284617369725 23.485275225083765  C 21.23484856179265 25.735711066042597  18.18260167930571 26.999992275240245  15.000004291533605 26.99999227524025  C 12.626629030393785 26.99999227524025  10.306551397981377 26.29620380867849  8.333161910407656 24.977627283775153  C 6.3597724228339345 23.659050758871814  4.821703408393209 21.784907903220777  3.913451998052216 19.592195150701002  C 3.0052005877112222 17.399482398181227  2.7675606247071025 14.986684266562195  3.230583170779577 12.658912851644654  C 3.6936057168520513 10.331141436727114  4.836494178963818 8.192946533790627  6.514723965697486 6.514716907105377  C 8.192953752431153 4.836487280420128  10.331149574537358 3.6935985696749016  12.658921211448439 3.2305760677596855  C 14.98669284835952 2.7675535658444694  17.39949121008087 3.005193506185482  19.592204171713988 3.9134448299088964  C 21.784917133347104 4.821696153632311  23.659058737219098 6.359765379019153  24.97763538787167 8.333154678395841  C 26.29621203852424 10.30654397777253  27.00000057220448 12.626620673669624  27.00000057220448 14.999995708466805  C 27.000000572204478 18.182592792722858  25.7357206729468 21.234839384124932  23.485284617369725 23.485275225083765  Z " stroke-width="0" stroke-dasharray="0" stroke="rgba(121, 121, 121, 1)" fill="none" transform="matrix(1 0 0 1 287 32 )" class="stroke" mask="url(#Clip99)" />
    <path d="M 17.87849323682914 8.57027047054182  C 17.07418232337335 7.887017169136858  16.05531663435619 7.508185402476643  15.000004291533605 7.499997854233403  C 14.209600271539635 7.499491091191967  13.43300493147279 7.7071787718261415  12.748368215872151 8.102161473609502  C 12.063731500271512 8.497144175392863  11.495205713232858 9.06548707101715  11.100003747939349 9.749997210503423  C 10.991473064707886 9.920724056990418  10.918599733962466 10.111640153177218  10.885766098830013 10.311261088010477  C 10.85293246369756 10.510882022843736  10.86081736879852 10.715082090652345  10.908947532854551 10.911576487090162  C 10.957077696910583 11.10807088352798  11.044458037330763 11.29279977348811  11.165831581910785 11.454648555379327  C 11.287205126490807 11.616497337270545  11.440063194441663 11.752122001487875  11.61521094032079 11.853363460532153  C 11.790358686199916 11.95460491957643  11.984177285470526 12.019370182090887  12.185004294394627 12.043764483328491  C 12.385831303318728 12.068158784566096  12.589518373521638 12.051677528512352  12.783810561406982 11.995311643034466  C 12.978102749292326 11.93894575755658  13.158984386399386 11.843860050259337  13.315575920948806 11.715775475756987  C 13.472167455498226 11.587690901254636  13.601232232961467 11.429254379992425  13.695004712103898 11.249996781350104  C 13.827161148374339 11.021090334580327  14.0174575831971 10.831169505291365  14.246624136614964 10.699464597855206  C 14.475790690032827 10.567759690419047  14.735689340281136 10.498947645076116  15.000004291533605 10.499996995926763  C 15.39782896500512 10.499996995926763  15.779359467688183 10.658032504704236  16.060663974635318 10.93933698482409  C 16.34196848158245 11.220641464943943  16.500004005431364 11.602171931241436  16.500004005431364 11.999996566773444  C 16.500004005431364 12.397821202305451  16.34196848158245 12.779351668602944  16.060663974635318 13.060656148722797  C 15.779359467688183 13.341960628842651  15.39782896500512 13.499996137620125  15.000004291533605 13.499996137620125  C 14.602179618062092 13.499996137620125  14.220649115379027 13.658031646397598  13.939344608431892 13.939336126517452  C 13.658040101484756 14.220640606637305  13.500004577635845 14.602171072934798  13.500004577635845 14.999995708466805  C 13.500004577635845 14.999995708466805  13.500004577635845 16.499995279313485  13.500004577635845 16.499995279313485  C 13.500004577635845 16.897819914845492  13.658040101484756 17.279350381142986  13.939344608431892 17.56065486126284  C 14.220649115379027 17.841959341382694  14.602179618062092 17.999994850160164  15.000004291533605 17.999994850160164  C 15.39782896500512 17.999994850160164  15.779359467688183 17.841959341382694  16.060663974635318 17.56065486126284  C 16.34196848158245 17.279350381142986  16.500004005431364 16.897819914845492  16.500004005431364 16.499995279313485  C 16.500004005431364 16.499995279313485  16.500004005431364 16.229994898797543  16.500004005431364 16.229994898797543  C 17.492059232319026 15.870026011697956  18.32604028920359 15.172835419797302  18.856160382049488 14.26029846373602  C 19.386280474895386 13.34776150767474  19.578812597560866 12.277934137935409  19.4001008224295 11.23783171525048  C 19.221389047298135 10.19772929256555  18.68280415028493 9.253523771946782  17.87849323682914 8.57027047054182  Z " stroke-width="0" stroke-dasharray="0" stroke="rgba(121, 121, 121, 1)" fill="none" transform="matrix(1 0 0 1 287 32 )" class="stroke" mask="url(#Clip99)" />
  </g>
  <style>svg { filter: drop-shadow(0px 4px 2px rgba(0, 0, 0, 0.5019607843137255)); }</style>
</svg>