<?xml version="1.0" encoding="utf-8"?>
<svg version="1.1" xmlns:xlink="http://www.w3.org/1999/xlink" width="38px" height="38px" xmlns="http://www.w3.org/2000/svg">
  <defs>
    <pattern id="BGPattern" patternUnits="userSpaceOnUse" alignment="0 0" imageRepeat="None" />
    <mask fill="white" id="Clip95">
      <path d="M 26.992955019135564 20.903496976592976  C 25.33326370677607 18.740571034672204  23.112984926449343 17.067621657558288  20.570122185263763 16.063981739654736  C 22.04797200911768 14.907637118194904  23.12666866537534 13.321944763370576  23.6561432330893 11.527510135052058  C 24.185617800803257 9.733075506733542  24.13953888949906 7.819133152576401  23.524317590256 6.051955688086494  C 22.90909629101294 4.284778223596586  21.755327258236516 2.7522451210973595  20.223524250024223 1.667565622162667  C 18.69172124181193 0.5828861232279743  16.858059973623373 0  14.977642830999526 0  C 13.097225688375682 0  11.263563701399537 0.5828861232279743  9.731760693187246 1.667565622162667  C 8.199957684974954 2.7522451210973595  7.046187214623361 4.284778223596586  6.430965915380301 6.051955688086494  C 5.815744616137241 7.819133152576401  5.769666423620626 9.733075506733542  6.299140991334585 11.527510135052058  C 6.828615559048544 13.321944763370576  7.907312934093792 14.907637118194904  9.385162757947706 16.063981739654736  C 6.852836544253307 17.072961807052096  4.643293934669109 18.746457771426577  2.992088628521664 20.90606326498984  C 1.3408833223742187 23.0656687585531  0.30991503488258176 25.63042345855423  0.009092435503729214 28.326908637083076  C -0.012682667173280135 28.523777939779865  0.0047458848692051026 28.722986813769243  0.06038259890553091 28.91315756314976  C 0.1160193129418567 29.103328312530277  0.20877462772912864 29.28073883621657  0.3333529712091071 29.435259287104625  C 0.5849502789470855 29.74732741734359  0.9508954601807492 29.94721457735089  1.3506846200158191 29.990950080472327  C 1.7504737798508891 30.03468558359376  2.1513584168875983 29.918686633883624  2.4651483261306026 29.668469851615633  C 2.778938235373607 29.418253069347642  2.9799294942157726 29.054315800706764  3.0239063000006614 28.656720301538172  C 3.354909846606417 25.72619909289211  4.759966277361727 23.019687697237252  6.970627320426017 21.05429179685557  C 9.181288363490307 19.08889589647388  12.042569152397057 18.00240730718811  15.007791657406285 18.002407307188104  C 17.973014162415517 18.00240730718811  20.834291357384352 19.08889589647388  23.04495240044864 21.05429179685557  C 25.255613443512928 23.019687697237252  26.660669155480655 25.72619909289211  26.99167270208641 28.656720301538172  C 27.032658399691506 29.02508680792182  27.209395639985466 29.365296385817658  27.487771266840117 29.61169125696758  C 27.766146893694767 29.858086128117503  28.126426770891346 29.993198369418018  28.499079520620434 29.990950080472327  C 28.499079520620434 29.990950080472327  28.664895190707284 29.990950080472327  28.664895190707284 29.990950080472327  C 29.0600404885858 29.945733728644413  29.42120004947415 29.74703256671206  29.66967397807813 29.438144395731296  C 29.91814790668211 29.129256224750534  30.033794233446645 28.735218166919978  29.99141192595108 28.3419003363196  C 29.68916760965608 25.637769012313036  28.65264633149506 23.066422918513744  26.992955019135564 20.903496976592976  Z M 19.24123345099407 13.243249065032275  C 18.110459017032102 14.367818890046195  16.576799470339807 14.999595398542441  14.977642830999526 14.999595398542445  C 13.785095253011793 14.999595398542445  12.619328442510938 14.647903846940174  11.62776133032056 13.98899531691684  C 10.636194218130182 13.330086786893506  9.863360546870844 12.393555802023027  9.406992336861814 11.29783089775011  C 8.950624126852784 10.202105993477195  8.831217403881569 8.996401066460818  9.06387189595176 7.833185726079952  C 9.29652638802195 6.669970385699087  9.870792990182224 5.601487990961709  10.714051492217399 4.762856485337224  C 11.557309994252574 3.9242249797127395  12.631687905162591 3.3531101184462426  13.801321074075661 3.1217322117850825  C 14.97095424298873 2.8903543051239224  16.183311427083744 3.0091058381655174  17.28508179371429 3.462969935776548  C 18.386852160344837 3.916834033387579  19.328550284151106 4.685425702686459  19.991094221839123 5.6715520426130634  C 20.65363815952714 6.65767838253967  21.00727010513562 7.8170489368084  21.00727010513562 9.00305295389564  C 21.007270105135618 10.593434950569996  20.372007884956037 12.118679240018354  19.24123345099407 13.243249065032275  Z " fill-rule="evenodd" />
    </mask>
  </defs>
  <g transform="matrix(1 0 0 1 -1427 -39 )">
    <path d="M 26.992955019135564 20.903496976592976  C 25.33326370677607 18.740571034672204  23.112984926449343 17.067621657558288  20.570122185263763 16.063981739654736  C 22.04797200911768 14.907637118194904  23.12666866537534 13.321944763370576  23.6561432330893 11.527510135052058  C 24.185617800803257 9.733075506733542  24.13953888949906 7.819133152576401  23.524317590256 6.051955688086494  C 22.90909629101294 4.284778223596586  21.755327258236516 2.7522451210973595  20.223524250024223 1.667565622162667  C 18.69172124181193 0.5828861232279743  16.858059973623373 0  14.977642830999526 0  C 13.097225688375682 0  11.263563701399537 0.5828861232279743  9.731760693187246 1.667565622162667  C 8.199957684974954 2.7522451210973595  7.046187214623361 4.284778223596586  6.430965915380301 6.051955688086494  C 5.815744616137241 7.819133152576401  5.769666423620626 9.733075506733542  6.299140991334585 11.527510135052058  C 6.828615559048544 13.321944763370576  7.907312934093792 14.907637118194904  9.385162757947706 16.063981739654736  C 6.852836544253307 17.072961807052096  4.643293934669109 18.746457771426577  2.992088628521664 20.90606326498984  C 1.3408833223742187 23.0656687585531  0.30991503488258176 25.63042345855423  0.009092435503729214 28.326908637083076  C -0.012682667173280135 28.523777939779865  0.0047458848692051026 28.722986813769243  0.06038259890553091 28.91315756314976  C 0.1160193129418567 29.103328312530277  0.20877462772912864 29.28073883621657  0.3333529712091071 29.435259287104625  C 0.5849502789470855 29.74732741734359  0.9508954601807492 29.94721457735089  1.3506846200158191 29.990950080472327  C 1.7504737798508891 30.03468558359376  2.1513584168875983 29.918686633883624  2.4651483261306026 29.668469851615633  C 2.778938235373607 29.418253069347642  2.9799294942157726 29.054315800706764  3.0239063000006614 28.656720301538172  C 3.354909846606417 25.72619909289211  4.759966277361727 23.019687697237252  6.970627320426017 21.05429179685557  C 9.181288363490307 19.08889589647388  12.042569152397057 18.00240730718811  15.007791657406285 18.002407307188104  C 17.973014162415517 18.00240730718811  20.834291357384352 19.08889589647388  23.04495240044864 21.05429179685557  C 25.255613443512928 23.019687697237252  26.660669155480655 25.72619909289211  26.99167270208641 28.656720301538172  C 27.032658399691506 29.02508680792182  27.209395639985466 29.365296385817658  27.487771266840117 29.61169125696758  C 27.766146893694767 29.858086128117503  28.126426770891346 29.993198369418018  28.499079520620434 29.990950080472327  C 28.499079520620434 29.990950080472327  28.664895190707284 29.990950080472327  28.664895190707284 29.990950080472327  C 29.0600404885858 29.945733728644413  29.42120004947415 29.74703256671206  29.66967397807813 29.438144395731296  C 29.91814790668211 29.129256224750534  30.033794233446645 28.735218166919978  29.99141192595108 28.3419003363196  C 29.68916760965608 25.637769012313036  28.65264633149506 23.066422918513744  26.992955019135564 20.903496976592976  Z M 19.24123345099407 13.243249065032275  C 18.110459017032102 14.367818890046195  16.576799470339807 14.999595398542441  14.977642830999526 14.999595398542445  C 13.785095253011793 14.999595398542445  12.619328442510938 14.647903846940174  11.62776133032056 13.98899531691684  C 10.636194218130182 13.330086786893506  9.863360546870844 12.393555802023027  9.406992336861814 11.29783089775011  C 8.950624126852784 10.202105993477195  8.831217403881569 8.996401066460818  9.06387189595176 7.833185726079952  C 9.29652638802195 6.669970385699087  9.870792990182224 5.601487990961709  10.714051492217399 4.762856485337224  C 11.557309994252574 3.9242249797127395  12.631687905162591 3.3531101184462426  13.801321074075661 3.1217322117850825  C 14.97095424298873 2.8903543051239224  16.183311427083744 3.0091058381655174  17.28508179371429 3.462969935776548  C 18.386852160344837 3.916834033387579  19.328550284151106 4.685425702686459  19.991094221839123 5.6715520426130634  C 20.65363815952714 6.65767838253967  21.00727010513562 7.8170489368084  21.00727010513562 9.00305295389564  C 21.007270105135618 10.593434950569996  20.372007884956037 12.118679240018354  19.24123345099407 13.243249065032275  Z " fill-rule="nonzero" fill="rgba(250, 218, 221, 1)" stroke="none" transform="matrix(1 0 0 1 1431 39 )" class="fill" />
    <path d="M 26.992955019135564 20.903496976592976  C 25.33326370677607 18.740571034672204  23.112984926449343 17.067621657558288  20.570122185263763 16.063981739654736  C 22.04797200911768 14.907637118194904  23.12666866537534 13.321944763370576  23.6561432330893 11.527510135052058  C 24.185617800803257 9.733075506733542  24.13953888949906 7.819133152576401  23.524317590256 6.051955688086494  C 22.90909629101294 4.284778223596586  21.755327258236516 2.7522451210973595  20.223524250024223 1.667565622162667  C 18.69172124181193 0.5828861232279743  16.858059973623373 0  14.977642830999526 0  C 13.097225688375682 0  11.263563701399537 0.5828861232279743  9.731760693187246 1.667565622162667  C 8.199957684974954 2.7522451210973595  7.046187214623361 4.284778223596586  6.430965915380301 6.051955688086494  C 5.815744616137241 7.819133152576401  5.769666423620626 9.733075506733542  6.299140991334585 11.527510135052058  C 6.828615559048544 13.321944763370576  7.907312934093792 14.907637118194904  9.385162757947706 16.063981739654736  C 6.852836544253307 17.072961807052096  4.643293934669109 18.746457771426577  2.992088628521664 20.90606326498984  C 1.3408833223742187 23.0656687585531  0.30991503488258176 25.63042345855423  0.009092435503729214 28.326908637083076  C -0.012682667173280135 28.523777939779865  0.0047458848692051026 28.722986813769243  0.06038259890553091 28.91315756314976  C 0.1160193129418567 29.103328312530277  0.20877462772912864 29.28073883621657  0.3333529712091071 29.435259287104625  C 0.5849502789470855 29.74732741734359  0.9508954601807492 29.94721457735089  1.3506846200158191 29.990950080472327  C 1.7504737798508891 30.03468558359376  2.1513584168875983 29.918686633883624  2.4651483261306026 29.668469851615633  C 2.778938235373607 29.418253069347642  2.9799294942157726 29.054315800706764  3.0239063000006614 28.656720301538172  C 3.354909846606417 25.72619909289211  4.759966277361727 23.019687697237252  6.970627320426017 21.05429179685557  C 9.181288363490307 19.08889589647388  12.042569152397057 18.00240730718811  15.007791657406285 18.002407307188104  C 17.973014162415517 18.00240730718811  20.834291357384352 19.08889589647388  23.04495240044864 21.05429179685557  C 25.255613443512928 23.019687697237252  26.660669155480655 25.72619909289211  26.99167270208641 28.656720301538172  C 27.032658399691506 29.02508680792182  27.209395639985466 29.365296385817658  27.487771266840117 29.61169125696758  C 27.766146893694767 29.858086128117503  28.126426770891346 29.993198369418018  28.499079520620434 29.990950080472327  C 28.499079520620434 29.990950080472327  28.664895190707284 29.990950080472327  28.664895190707284 29.990950080472327  C 29.0600404885858 29.945733728644413  29.42120004947415 29.74703256671206  29.66967397807813 29.438144395731296  C 29.91814790668211 29.129256224750534  30.033794233446645 28.735218166919978  29.99141192595108 28.3419003363196  C 29.68916760965608 25.637769012313036  28.65264633149506 23.066422918513744  26.992955019135564 20.903496976592976  Z " stroke-width="0" stroke-dasharray="0" stroke="rgba(121, 121, 121, 1)" fill="none" transform="matrix(1 0 0 1 1431 39 )" class="stroke" mask="url(#Clip95)" />
    <path d="M 19.24123345099407 13.243249065032275  C 18.110459017032102 14.367818890046195  16.576799470339807 14.999595398542441  14.977642830999526 14.999595398542445  C 13.785095253011793 14.999595398542445  12.619328442510938 14.647903846940174  11.62776133032056 13.98899531691684  C 10.636194218130182 13.330086786893506  9.863360546870844 12.393555802023027  9.406992336861814 11.29783089775011  C 8.950624126852784 10.202105993477195  8.831217403881569 8.996401066460818  9.06387189595176 7.833185726079952  C 9.29652638802195 6.669970385699087  9.870792990182224 5.601487990961709  10.714051492217399 4.762856485337224  C 11.557309994252574 3.9242249797127395  12.631687905162591 3.3531101184462426  13.801321074075661 3.1217322117850825  C 14.97095424298873 2.8903543051239224  16.183311427083744 3.0091058381655174  17.28508179371429 3.462969935776548  C 18.386852160344837 3.916834033387579  19.328550284151106 4.685425702686459  19.991094221839123 5.6715520426130634  C 20.65363815952714 6.65767838253967  21.00727010513562 7.8170489368084  21.00727010513562 9.00305295389564  C 21.007270105135618 10.593434950569996  20.372007884956037 12.118679240018354  19.24123345099407 13.243249065032275  Z " stroke-width="0" stroke-dasharray="0" stroke="rgba(121, 121, 121, 1)" fill="none" transform="matrix(1 0 0 1 1431 39 )" class="stroke" mask="url(#Clip95)" />
  </g>
  <style>svg { filter: drop-shadow(0px 4px 2px rgba(0, 0, 0, 0.5019607843137255)); }</style>
</svg>