<?xml version="1.0" encoding="utf-8"?>
<svg version="1.1" xmlns:xlink="http://www.w3.org/1999/xlink" width="38px" height="38px" xmlns="http://www.w3.org/2000/svg">
  <defs>
    <pattern id="BGPattern" patternUnits="userSpaceOnUse" alignment="0 0" imageRepeat="None" />
    <mask fill="white" id="Clip97">
      <path d="M 29.310811898299377 6.595301817633129  C 28.844931161663983 5.2936038367403055  28.15644273404781 4.108986299116324  27.284913730847652 3.109532219202033  C 25.683887773684912 1.3154648786637688  23.569251458152532 0.22839025703323035  21.322573630271187 0.04446261298090849  C 19.07589580238984 -0.13946503107141334  16.845139363479035 0.5918670647976851  15.032825436094978 2.1064962733786636  C 13.122424325895313 0.497622587337486  10.744581860400158 -0.23191722976807133  8.378139124443113 0.06478768868465982  C 6.011696388486067 0.361492607137391  3.832433384726693 1.6624032675977416  2.2792005909456745 3.705547896995745  C 0.7259677971646561 5.748692526393748  -0.08585983031095648 8.382304731224544  0.0072002125544179015 11.07603975307756  C 0.10026025541979228 13.769774774930575  1.091295219100192 16.323540188667906  2.780734993455628 18.223069707858308  C 2.780734993455628 18.223069707858308  11.789624666826978 28.508435969083678  11.789624666826978 28.508435969083678  C 12.634210221592216 29.463533096273466  13.779084384310194 30  14.972766228882813 30  C 16.166448073455435 30  17.311321520211184 29.463533096273466  18.155907074976422 28.508435969083678  C 18.155907074976422 28.508435969083678  27.164795316423323 18.223069707858308  27.164795316423323 18.223069707858308  C 28.05206868693387 17.241536103954555  28.75927630490559 16.071138517243973  29.245771025925183 14.77914434491319  C 29.732265746944776 13.487150172582407  29.988456814425312 12.099033546077244  29.99961910809626 10.694572857727762  C 30.01078140176721 9.290112169378279  29.776692634934772 7.896999798525954  29.310811898299377 6.595301817633129  Z M 26.552051933417804 10.861062946372018  C 26.641193822665393 12.641414460216009  26.148461700269 14.396632113795654  25.167824886713294 15.791982694849397  C 25.167824886713294 15.791982694849397  16.158936645266397 25.992343986237508  16.158936645266397 25.992343986237508  C 16.019354428585537 26.15168798741128  15.853289060059016 26.278165591119475  15.670319633221144 26.364475413032604  C 15.487350206383269 26.450785234945734  15.291098046981535 26.49522061191905  15.092884643307142 26.49522061191905  C 14.894671239632746 26.49522061191905  14.698419080231014 26.450785234945734  14.51544965339314 26.364475413032604  C 14.332480226555267 26.278165591119475  14.166414858028748 26.15168798741128  14.026832641347887 25.992343986237508  C 14.026832641347887 25.992343986237508  5.0179426099954245 15.791982694849397  5.0179426099954245 15.791982694849397  C 3.840417884955944 14.429121121084172  3.181045582641944 12.598361745245148  3.181045582641944 10.691802049155344  C 3.181045582641943 8.78524235306554  3.840417884955944 6.954482166574504  5.0179426099954245 5.591620592809279  C 6.217860038072008 4.250252646454554  7.836182747639639 3.4981125859453246  9.522387088699986 3.498112585945326  C 11.208591429760334 3.4981125859453246  12.826915213271304 4.250252646454554  14.026832641347887 5.591620592809279  C 14.166414858028748 5.750964593983049  14.332480226555267 5.877438955083204  14.51544965339314 5.963748776996333  C 14.698419080231014 6.0500585989094615  14.894671239632746 6.0944955971868  15.092884643307142 6.0944955971868  C 15.291098046981535 6.0944955971868  15.487350206383269 6.0500585989094615  15.670319633221144 5.963748776996333  C 15.853289060059016 5.877438955083204  16.019354428585537 5.750964593983049  16.158936645266397 5.591620592809279  C 17.39130058643034 4.481289381474678  18.94149734239595 3.923391644202373  20.5138914332065 4.024323019101555  C 22.086285524017047 4.125254394000737  23.570860135776982 4.877953063410713  24.684495971662404 6.138873120206074  C 25.798131807547826 7.399793177001435  26.462910044170215 9.080711432528027  26.552051933417804 10.861062946372018  Z " fill-rule="evenodd" />
    </mask>
  </defs>
  <g transform="matrix(1 0 0 1 -1556 -39 )">
    <path d="M 29.310811898299377 6.595301817633129  C 28.844931161663983 5.2936038367403055  28.15644273404781 4.108986299116324  27.284913730847652 3.109532219202033  C 25.683887773684912 1.3154648786637688  23.569251458152532 0.22839025703323035  21.322573630271187 0.04446261298090849  C 19.07589580238984 -0.13946503107141334  16.845139363479035 0.5918670647976851  15.032825436094978 2.1064962733786636  C 13.122424325895313 0.497622587337486  10.744581860400158 -0.23191722976807133  8.378139124443113 0.06478768868465982  C 6.011696388486067 0.361492607137391  3.832433384726693 1.6624032675977416  2.2792005909456745 3.705547896995745  C 0.7259677971646561 5.748692526393748  -0.08585983031095648 8.382304731224544  0.0072002125544179015 11.07603975307756  C 0.10026025541979228 13.769774774930575  1.091295219100192 16.323540188667906  2.780734993455628 18.223069707858308  C 2.780734993455628 18.223069707858308  11.789624666826978 28.508435969083678  11.789624666826978 28.508435969083678  C 12.634210221592216 29.463533096273466  13.779084384310194 30  14.972766228882813 30  C 16.166448073455435 30  17.311321520211184 29.463533096273466  18.155907074976422 28.508435969083678  C 18.155907074976422 28.508435969083678  27.164795316423323 18.223069707858308  27.164795316423323 18.223069707858308  C 28.05206868693387 17.241536103954555  28.75927630490559 16.071138517243973  29.245771025925183 14.77914434491319  C 29.732265746944776 13.487150172582407  29.988456814425312 12.099033546077244  29.99961910809626 10.694572857727762  C 30.01078140176721 9.290112169378279  29.776692634934772 7.896999798525954  29.310811898299377 6.595301817633129  Z M 26.552051933417804 10.861062946372018  C 26.641193822665393 12.641414460216009  26.148461700269 14.396632113795654  25.167824886713294 15.791982694849397  C 25.167824886713294 15.791982694849397  16.158936645266397 25.992343986237508  16.158936645266397 25.992343986237508  C 16.019354428585537 26.15168798741128  15.853289060059016 26.278165591119475  15.670319633221144 26.364475413032604  C 15.487350206383269 26.450785234945734  15.291098046981535 26.49522061191905  15.092884643307142 26.49522061191905  C 14.894671239632746 26.49522061191905  14.698419080231014 26.450785234945734  14.51544965339314 26.364475413032604  C 14.332480226555267 26.278165591119475  14.166414858028748 26.15168798741128  14.026832641347887 25.992343986237508  C 14.026832641347887 25.992343986237508  5.0179426099954245 15.791982694849397  5.0179426099954245 15.791982694849397  C 3.840417884955944 14.429121121084172  3.181045582641944 12.598361745245148  3.181045582641944 10.691802049155344  C 3.181045582641943 8.78524235306554  3.840417884955944 6.954482166574504  5.0179426099954245 5.591620592809279  C 6.217860038072008 4.250252646454554  7.836182747639639 3.4981125859453246  9.522387088699986 3.498112585945326  C 11.208591429760334 3.4981125859453246  12.826915213271304 4.250252646454554  14.026832641347887 5.591620592809279  C 14.166414858028748 5.750964593983049  14.332480226555267 5.877438955083204  14.51544965339314 5.963748776996333  C 14.698419080231014 6.0500585989094615  14.894671239632746 6.0944955971868  15.092884643307142 6.0944955971868  C 15.291098046981535 6.0944955971868  15.487350206383269 6.0500585989094615  15.670319633221144 5.963748776996333  C 15.853289060059016 5.877438955083204  16.019354428585537 5.750964593983049  16.158936645266397 5.591620592809279  C 17.39130058643034 4.481289381474678  18.94149734239595 3.923391644202373  20.5138914332065 4.024323019101555  C 22.086285524017047 4.125254394000737  23.570860135776982 4.877953063410713  24.684495971662404 6.138873120206074  C 25.798131807547826 7.399793177001435  26.462910044170215 9.080711432528027  26.552051933417804 10.861062946372018  Z " fill-rule="nonzero" fill="rgba(250, 218, 221, 1)" stroke="none" transform="matrix(1 0 0 1 1560 39 )" class="fill" />
    <path d="M 29.310811898299377 6.595301817633129  C 28.844931161663983 5.2936038367403055  28.15644273404781 4.108986299116324  27.284913730847652 3.109532219202033  C 25.683887773684912 1.3154648786637688  23.569251458152532 0.22839025703323035  21.322573630271187 0.04446261298090849  C 19.07589580238984 -0.13946503107141334  16.845139363479035 0.5918670647976851  15.032825436094978 2.1064962733786636  C 13.122424325895313 0.497622587337486  10.744581860400158 -0.23191722976807133  8.378139124443113 0.06478768868465982  C 6.011696388486067 0.361492607137391  3.832433384726693 1.6624032675977416  2.2792005909456745 3.705547896995745  C 0.7259677971646561 5.748692526393748  -0.08585983031095648 8.382304731224544  0.0072002125544179015 11.07603975307756  C 0.10026025541979228 13.769774774930575  1.091295219100192 16.323540188667906  2.780734993455628 18.223069707858308  C 2.780734993455628 18.223069707858308  11.789624666826978 28.508435969083678  11.789624666826978 28.508435969083678  C 12.634210221592216 29.463533096273466  13.779084384310194 30  14.972766228882813 30  C 16.166448073455435 30  17.311321520211184 29.463533096273466  18.155907074976422 28.508435969083678  C 18.155907074976422 28.508435969083678  27.164795316423323 18.223069707858308  27.164795316423323 18.223069707858308  C 28.05206868693387 17.241536103954555  28.75927630490559 16.071138517243973  29.245771025925183 14.77914434491319  C 29.732265746944776 13.487150172582407  29.988456814425312 12.099033546077244  29.99961910809626 10.694572857727762  C 30.01078140176721 9.290112169378279  29.776692634934772 7.896999798525954  29.310811898299377 6.595301817633129  Z " stroke-width="0" stroke-dasharray="0" stroke="rgba(121, 121, 121, 1)" fill="none" transform="matrix(1 0 0 1 1560 39 )" class="stroke" mask="url(#Clip97)" />
    <path d="M 26.552051933417804 10.861062946372018  C 26.641193822665393 12.641414460216009  26.148461700269 14.396632113795654  25.167824886713294 15.791982694849397  C 25.167824886713294 15.791982694849397  16.158936645266397 25.992343986237508  16.158936645266397 25.992343986237508  C 16.019354428585537 26.15168798741128  15.853289060059016 26.278165591119475  15.670319633221144 26.364475413032604  C 15.487350206383269 26.450785234945734  15.291098046981535 26.49522061191905  15.092884643307142 26.49522061191905  C 14.894671239632746 26.49522061191905  14.698419080231014 26.450785234945734  14.51544965339314 26.364475413032604  C 14.332480226555267 26.278165591119475  14.166414858028748 26.15168798741128  14.026832641347887 25.992343986237508  C 14.026832641347887 25.992343986237508  5.0179426099954245 15.791982694849397  5.0179426099954245 15.791982694849397  C 3.840417884955944 14.429121121084172  3.181045582641944 12.598361745245148  3.181045582641944 10.691802049155344  C 3.181045582641943 8.78524235306554  3.840417884955944 6.954482166574504  5.0179426099954245 5.591620592809279  C 6.217860038072008 4.250252646454554  7.836182747639639 3.4981125859453246  9.522387088699986 3.498112585945326  C 11.208591429760334 3.4981125859453246  12.826915213271304 4.250252646454554  14.026832641347887 5.591620592809279  C 14.166414858028748 5.750964593983049  14.332480226555267 5.877438955083204  14.51544965339314 5.963748776996333  C 14.698419080231014 6.0500585989094615  14.894671239632746 6.0944955971868  15.092884643307142 6.0944955971868  C 15.291098046981535 6.0944955971868  15.487350206383269 6.0500585989094615  15.670319633221144 5.963748776996333  C 15.853289060059016 5.877438955083204  16.019354428585537 5.750964593983049  16.158936645266397 5.591620592809279  C 17.39130058643034 4.481289381474678  18.94149734239595 3.923391644202373  20.5138914332065 4.024323019101555  C 22.086285524017047 4.125254394000737  23.570860135776982 4.877953063410713  24.684495971662404 6.138873120206074  C 25.798131807547826 7.399793177001435  26.462910044170215 9.080711432528027  26.552051933417804 10.861062946372018  Z " stroke-width="0" stroke-dasharray="0" stroke="rgba(121, 121, 121, 1)" fill="none" transform="matrix(1 0 0 1 1560 39 )" class="stroke" mask="url(#Clip97)" />
  </g>
  <style>svg { filter: drop-shadow(0px 4px 2px rgba(0, 0, 0, 0.5019607843137255)); }</style>
</svg>