<?xml version="1.0" encoding="utf-8"?>
<svg version="1.1" xmlns:xlink="http://www.w3.org/1999/xlink" width="38px" height="38px" xmlns="http://www.w3.org/2000/svg">
  <defs>
    <pattern id="BGPattern" patternUnits="userSpaceOnUse" alignment="0 0" imageRepeat="None" />
    <mask fill="white" id="Clip96">
      <path d="M 16.93179669021682 23.581661575173463  C 17.214116397287206 23.862046241243718  17.597023805792197 24.019563577062787  17.99628418913528 24.019563577062787  C 18.395544572478364 24.019563577062787  18.778451980983355 23.862046241243718  19.06077168805374 23.581661575173463  C 19.343091395124127 23.30127690910321  19.50169725353693 22.920992551611846  19.50169725353693 22.524468729664047  C 19.50169725353693 22.524468729664047  19.50169725353693 19.53427903486657  19.50169725353693 19.53427903486657  C 19.50169725353693 19.137755212918773  19.343091395124127 18.75747228126097  19.06077168805374 18.477087615190715  C 18.778451980983355 18.19670294912046  18.395544572478364 18.039184187467836  17.99628418913528 18.039184187467836  C 17.597023805792197 18.039184187467836  17.214116397287206 18.19670294912046  16.93179669021682 18.477087615190715  C 16.649476983146435 18.75747228126097  16.490871124733637 19.137755212918773  16.490871124733637 19.53427903486657  C 16.490871124733637 19.53427903486657  16.490871124733637 22.524468729664047  16.490871124733637 22.524468729664047  C 16.490871124733637 22.920992551611846  16.649476983146435 23.30127690910321  16.93179669021682 23.581661575173463  Z M 10.910143714773351 23.581661575173463  C 11.192463421843739 23.862046241243718  11.575370830348728 24.019563577062787  11.974631213691811 24.019563577062787  C 12.373891597034895 24.019563577062787  12.75679972337677 23.862046241243718  13.039119430447156 23.581661575173463  C 13.321439137517544 23.30127690910321  13.480044995930344 22.920992551611846  13.480044995930344 22.524468729664047  C 13.480044995930344 22.524468729664047  13.480044995930344 19.53427903486657  13.480044995930344 19.53427903486657  C 13.480044995930344 19.137755212918773  13.321439137517544 18.75747228126097  13.039119430447156 18.477087615190715  C 12.75679972337677 18.19670294912046  12.373891597034895 18.039184187467836  11.974631213691811 18.039184187467836  C 11.575370830348728 18.039184187467836  11.192463421843739 18.19670294912046  10.910143714773351 18.477087615190715  C 10.627824007702964 18.75747228126097  10.469218149290166 19.137755212918773  10.469218149290166 19.53427903486657  C 10.469218149290166 19.53427903486657  10.469218149290166 22.524468729664047  10.469218149290166 22.524468729664047  C 10.469218149290166 22.920992551611846  10.627824007702964 23.30127690910321  10.910143714773351 23.581661575173463  Z M 28.42754097030108 7.162032533339316  C 27.618684249730286 6.471579940974293  26.589879525195883 6.087714007944192  25.523348075469734 6.0784261211947115  C 25.523348075469734 6.0784261211947115  23.445880745662162 6.0784261211947115  23.445880745662162 6.0784261211947115  C 23.445880745662162 6.0784261211947115  20.841515397696952 0.9203485590335966  20.841515397696952 0.9203485590335966  C 20.761934609534062 0.7305513763119806  20.643793889444602 0.5590948577182082  20.494475718736577 0.41669321786584657  C 20.345157548028553 0.27429157801348497  20.167870388400484 0.16400555243053766  19.973695106534652 0.09272725293168015  C 19.77951982466882 0.021448953432822618  19.572629206392556 -0.009289788267010378  19.365951426753455 0.002432064591873829  C 19.159273647114354 0.014153917450758035  18.9572508826642 0.06808455486474448  18.772508493446054 0.16085339646504493  C 18.587766104227907 0.2536222380653454  18.42427535457912 0.38323559902761006  18.292251209220165 0.5415937422113842  C 18.16022706386121 0.6999518853951584  18.06250698619796 0.8836509450852562  18.005199723278665 1.081211813800966  C 17.94789246035937 1.278772682516676  17.932229323966165 1.4859491722299525  17.959187814460414 1.6897940236091422  C 17.986146304954662 1.8936388749883322  18.055146847563076 2.0897711475949703  18.1618791093769 2.2659341533904134  C 18.1618791093769 2.2659341533904134  20.073754390290404 6  20.073754390290404 6  L 9.897161012536687 6  C 9.897161012536687 6  11.80903629345019 2.2659341533904134  11.80903629345019 2.2659341533904134  C 11.955158912307468 1.917437217815657  11.963129302026378 1.526942577619052  11.831348099589054 1.1728504929391772  C 11.69956689715173 0.8187584082593025  11.437790010589051 0.5272837090400794  11.09857446208175 0.35694580142872323  C 10.759358913574449 0.18660789381736706  10.367818192984897 0.15001799713849465  10.002562438409596 0.25452176081033734  C 9.637306683834295 0.35902552448218006  9.325376922989312 0.5968860971437512  9.129400005130142 0.9203485590335966  C 9.129400005130142 0.9203485590335966  6.525036092838707 6.0784261211947115  6.525036092838707 6.0784261211947115  C 6.525036092838707 6.0784261211947115  4.447566250602026 6.0784261211947115  4.447566250602026 6.0784261211947115  C 3.383523451635405 6.094498948316308  2.359371925265332 6.483217683577496  1.5557418648024093 7.176023525113016  C 0.7521118043394868 7.868829366648536  0.22062775063131362 8.821216405697935  0.055027435396833635 9.865213339870621  C -0.11057287983764635 10.909210274043307  0.10034875148065825 11.977750883256359  0.6505919468415943 12.882376240974235  C 1.2008351422025303 13.787001598692111  2.0550526935345674 14.469599296272719  3.06258611649861 14.80977954521993  C 3.06258611649861 14.80977954521993  4.176592157431009 25.9631857380143  4.176592157431009 25.9631857380143  C 4.288928515744939 27.073398204324228  4.813899590507555 28.102165899393945  5.648994056884841 28.848599479741853  C 6.484088523262127 29.59503306008976  7.5693404411787215 30.005534596780578  8.692830991717502 29.999942966657738  C 8.692830991717502 29.999942966657738  21.30819407935792 29.999942966657738  21.30819407935792 29.999942966657738  C 22.4316846298967 30.005534596780578  23.516933317547306 29.59503306008976  24.35202778392459 28.848599479741853  C 25.187122250301876 28.102165899393945  25.712095478575154 27.073398204324228  25.824431836889083 25.9631857380143  C 25.824431836889083 25.9631857380143  26.938437159984595 14.80977954521993  26.938437159984595 14.80977954521993  C 27.9481668049061 14.468589538770885  28.803726621488245 13.783497345383084  29.35357926871755 12.875847349118768  C 29.903431915946854 11.968197352854451  30.112091676881086 10.896566873209746  29.94259889112386 9.850765368442044  C 29.773106105366637 8.804963863674342  29.236397690871875 7.852485125704337  28.42754097030108 7.162032533339316  Z M 23.86739456603219 15  C 23.86739456603219 15  22.798552668553846 25.66416847953482  22.798552668553846 25.66416847953482  C 22.761107214847854 26.034239301638127  22.586115167620658 26.377161874087584  22.30775036044983 26.62597306011067  C 22.029385553279003 26.874784246133757  21.66763645433179 27.011617148567876  21.2931396041522 27.009753271860262  C 21.2931396041522 27.009753271860262  8.67777651651178 27.009753271860262  8.67777651651178 27.009753271860262  C 8.303279666332188 27.011617148567876  7.941529131711201 26.874784246133757  7.663164324540373 26.62597306011067  C 7.384799517369547 26.377161874087584  7.209808905816128 26.034239301638127  7.172363452110134 25.66416847953482  C 7.172363452110134 25.66416847953482  6.103520118958015 15  6.103520118958015 15  L 23.86739456603219 15  Z M 26.587837010061968 11.620902083066781  C 26.305517302991582 11.901286749137038  25.922608458812817 12.058804797872885  25.523348075469734 12.058804797872885  C 25.523348075469734 12.058804797872885  4.447566250602026 12.058804797872885  4.447566250602026 12.058804797872885  C 4.048305867258943 12.058804797872885  3.6653984587539536 11.901286749137038  3.3830787516835668 11.620902083066781  C 3.10075904461318 11.340517416996525  2.9421530067411585 10.960234485338724  2.9421530067411585 10.563710663390925  C 2.9421530067411585 10.167186841443126  3.10075904461318 9.786903909785325  3.3830787516835668 9.506519243715069  C 3.6653984587539536 9.226134577644812  4.048305867258943 9.068615815992185  4.447566250602026 9.068615815992187  C 4.447566250602026 9.068615815992187  25.523348075469734 9.068615815992187  25.523348075469734 9.068615815992187  C 25.922608458812817 9.068615815992185  26.305517302991582 9.226134577644812  26.587837010061968 9.506519243715069  C 26.870156717132353 9.786903909785325  27.02876113987138 10.167186841443126  27.02876113987138 10.563710663390925  C 27.02876113987138 10.960234485338724  26.870156717132353 11.340517416996525  26.587837010061968 11.620902083066781  Z " fill-rule="evenodd" />
    </mask>
  </defs>
  <g transform="matrix(1 0 0 1 -1696 -39 )">
    <path d="M 16.93179669021682 23.581661575173463  C 17.214116397287206 23.862046241243718  17.597023805792197 24.019563577062787  17.99628418913528 24.019563577062787  C 18.395544572478364 24.019563577062787  18.778451980983355 23.862046241243718  19.06077168805374 23.581661575173463  C 19.343091395124127 23.30127690910321  19.50169725353693 22.920992551611846  19.50169725353693 22.524468729664047  C 19.50169725353693 22.524468729664047  19.50169725353693 19.53427903486657  19.50169725353693 19.53427903486657  C 19.50169725353693 19.137755212918773  19.343091395124127 18.75747228126097  19.06077168805374 18.477087615190715  C 18.778451980983355 18.19670294912046  18.395544572478364 18.039184187467836  17.99628418913528 18.039184187467836  C 17.597023805792197 18.039184187467836  17.214116397287206 18.19670294912046  16.93179669021682 18.477087615190715  C 16.649476983146435 18.75747228126097  16.490871124733637 19.137755212918773  16.490871124733637 19.53427903486657  C 16.490871124733637 19.53427903486657  16.490871124733637 22.524468729664047  16.490871124733637 22.524468729664047  C 16.490871124733637 22.920992551611846  16.649476983146435 23.30127690910321  16.93179669021682 23.581661575173463  Z M 10.910143714773351 23.581661575173463  C 11.192463421843739 23.862046241243718  11.575370830348728 24.019563577062787  11.974631213691811 24.019563577062787  C 12.373891597034895 24.019563577062787  12.75679972337677 23.862046241243718  13.039119430447156 23.581661575173463  C 13.321439137517544 23.30127690910321  13.480044995930344 22.920992551611846  13.480044995930344 22.524468729664047  C 13.480044995930344 22.524468729664047  13.480044995930344 19.53427903486657  13.480044995930344 19.53427903486657  C 13.480044995930344 19.137755212918773  13.321439137517544 18.75747228126097  13.039119430447156 18.477087615190715  C 12.75679972337677 18.19670294912046  12.373891597034895 18.039184187467836  11.974631213691811 18.039184187467836  C 11.575370830348728 18.039184187467836  11.192463421843739 18.19670294912046  10.910143714773351 18.477087615190715  C 10.627824007702964 18.75747228126097  10.469218149290166 19.137755212918773  10.469218149290166 19.53427903486657  C 10.469218149290166 19.53427903486657  10.469218149290166 22.524468729664047  10.469218149290166 22.524468729664047  C 10.469218149290166 22.920992551611846  10.627824007702964 23.30127690910321  10.910143714773351 23.581661575173463  Z M 28.42754097030108 7.162032533339316  C 27.618684249730286 6.471579940974293  26.589879525195883 6.087714007944192  25.523348075469734 6.0784261211947115  C 25.523348075469734 6.0784261211947115  23.445880745662162 6.0784261211947115  23.445880745662162 6.0784261211947115  C 23.445880745662162 6.0784261211947115  20.841515397696952 0.9203485590335966  20.841515397696952 0.9203485590335966  C 20.761934609534062 0.7305513763119806  20.643793889444602 0.5590948577182082  20.494475718736577 0.41669321786584657  C 20.345157548028553 0.27429157801348497  20.167870388400484 0.16400555243053766  19.973695106534652 0.09272725293168015  C 19.77951982466882 0.021448953432822618  19.572629206392556 -0.009289788267010378  19.365951426753455 0.002432064591873829  C 19.159273647114354 0.014153917450758035  18.9572508826642 0.06808455486474448  18.772508493446054 0.16085339646504493  C 18.587766104227907 0.2536222380653454  18.42427535457912 0.38323559902761006  18.292251209220165 0.5415937422113842  C 18.16022706386121 0.6999518853951584  18.06250698619796 0.8836509450852562  18.005199723278665 1.081211813800966  C 17.94789246035937 1.278772682516676  17.932229323966165 1.4859491722299525  17.959187814460414 1.6897940236091422  C 17.986146304954662 1.8936388749883322  18.055146847563076 2.0897711475949703  18.1618791093769 2.2659341533904134  C 18.1618791093769 2.2659341533904134  20.073754390290404 6  20.073754390290404 6  L 9.897161012536687 6  C 9.897161012536687 6  11.80903629345019 2.2659341533904134  11.80903629345019 2.2659341533904134  C 11.955158912307468 1.917437217815657  11.963129302026378 1.526942577619052  11.831348099589054 1.1728504929391772  C 11.69956689715173 0.8187584082593025  11.437790010589051 0.5272837090400794  11.09857446208175 0.35694580142872323  C 10.759358913574449 0.18660789381736706  10.367818192984897 0.15001799713849465  10.002562438409596 0.25452176081033734  C 9.637306683834295 0.35902552448218006  9.325376922989312 0.5968860971437512  9.129400005130142 0.9203485590335966  C 9.129400005130142 0.9203485590335966  6.525036092838707 6.0784261211947115  6.525036092838707 6.0784261211947115  C 6.525036092838707 6.0784261211947115  4.447566250602026 6.0784261211947115  4.447566250602026 6.0784261211947115  C 3.383523451635405 6.094498948316308  2.359371925265332 6.483217683577496  1.5557418648024093 7.176023525113016  C 0.7521118043394868 7.868829366648536  0.22062775063131362 8.821216405697935  0.055027435396833635 9.865213339870621  C -0.11057287983764635 10.909210274043307  0.10034875148065825 11.977750883256359  0.6505919468415943 12.882376240974235  C 1.2008351422025303 13.787001598692111  2.0550526935345674 14.469599296272719  3.06258611649861 14.80977954521993  C 3.06258611649861 14.80977954521993  4.176592157431009 25.9631857380143  4.176592157431009 25.9631857380143  C 4.288928515744939 27.073398204324228  4.813899590507555 28.102165899393945  5.648994056884841 28.848599479741853  C 6.484088523262127 29.59503306008976  7.5693404411787215 30.005534596780578  8.692830991717502 29.999942966657738  C 8.692830991717502 29.999942966657738  21.30819407935792 29.999942966657738  21.30819407935792 29.999942966657738  C 22.4316846298967 30.005534596780578  23.516933317547306 29.59503306008976  24.35202778392459 28.848599479741853  C 25.187122250301876 28.102165899393945  25.712095478575154 27.073398204324228  25.824431836889083 25.9631857380143  C 25.824431836889083 25.9631857380143  26.938437159984595 14.80977954521993  26.938437159984595 14.80977954521993  C 27.9481668049061 14.468589538770885  28.803726621488245 13.783497345383084  29.35357926871755 12.875847349118768  C 29.903431915946854 11.968197352854451  30.112091676881086 10.896566873209746  29.94259889112386 9.850765368442044  C 29.773106105366637 8.804963863674342  29.236397690871875 7.852485125704337  28.42754097030108 7.162032533339316  Z M 23.86739456603219 15  C 23.86739456603219 15  22.798552668553846 25.66416847953482  22.798552668553846 25.66416847953482  C 22.761107214847854 26.034239301638127  22.586115167620658 26.377161874087584  22.30775036044983 26.62597306011067  C 22.029385553279003 26.874784246133757  21.66763645433179 27.011617148567876  21.2931396041522 27.009753271860262  C 21.2931396041522 27.009753271860262  8.67777651651178 27.009753271860262  8.67777651651178 27.009753271860262  C 8.303279666332188 27.011617148567876  7.941529131711201 26.874784246133757  7.663164324540373 26.62597306011067  C 7.384799517369547 26.377161874087584  7.209808905816128 26.034239301638127  7.172363452110134 25.66416847953482  C 7.172363452110134 25.66416847953482  6.103520118958015 15  6.103520118958015 15  L 23.86739456603219 15  Z M 26.587837010061968 11.620902083066781  C 26.305517302991582 11.901286749137038  25.922608458812817 12.058804797872885  25.523348075469734 12.058804797872885  C 25.523348075469734 12.058804797872885  4.447566250602026 12.058804797872885  4.447566250602026 12.058804797872885  C 4.048305867258943 12.058804797872885  3.6653984587539536 11.901286749137038  3.3830787516835668 11.620902083066781  C 3.10075904461318 11.340517416996525  2.9421530067411585 10.960234485338724  2.9421530067411585 10.563710663390925  C 2.9421530067411585 10.167186841443126  3.10075904461318 9.786903909785325  3.3830787516835668 9.506519243715069  C 3.6653984587539536 9.226134577644812  4.048305867258943 9.068615815992185  4.447566250602026 9.068615815992187  C 4.447566250602026 9.068615815992187  25.523348075469734 9.068615815992187  25.523348075469734 9.068615815992187  C 25.922608458812817 9.068615815992185  26.305517302991582 9.226134577644812  26.587837010061968 9.506519243715069  C 26.870156717132353 9.786903909785325  27.02876113987138 10.167186841443126  27.02876113987138 10.563710663390925  C 27.02876113987138 10.960234485338724  26.870156717132353 11.340517416996525  26.587837010061968 11.620902083066781  Z " fill-rule="nonzero" fill="rgba(250, 218, 221, 1)" stroke="none" transform="matrix(1 0 0 1 1700 39 )" class="fill" />
    <path d="M 16.93179669021682 23.581661575173463  C 17.214116397287206 23.862046241243718  17.597023805792197 24.019563577062787  17.99628418913528 24.019563577062787  C 18.395544572478364 24.019563577062787  18.778451980983355 23.862046241243718  19.06077168805374 23.581661575173463  C 19.343091395124127 23.30127690910321  19.50169725353693 22.920992551611846  19.50169725353693 22.524468729664047  C 19.50169725353693 22.524468729664047  19.50169725353693 19.53427903486657  19.50169725353693 19.53427903486657  C 19.50169725353693 19.137755212918773  19.343091395124127 18.75747228126097  19.06077168805374 18.477087615190715  C 18.778451980983355 18.19670294912046  18.395544572478364 18.039184187467836  17.99628418913528 18.039184187467836  C 17.597023805792197 18.039184187467836  17.214116397287206 18.19670294912046  16.93179669021682 18.477087615190715  C 16.649476983146435 18.75747228126097  16.490871124733637 19.137755212918773  16.490871124733637 19.53427903486657  C 16.490871124733637 19.53427903486657  16.490871124733637 22.524468729664047  16.490871124733637 22.524468729664047  C 16.490871124733637 22.920992551611846  16.649476983146435 23.30127690910321  16.93179669021682 23.581661575173463  Z " stroke-width="0" stroke-dasharray="0" stroke="rgba(121, 121, 121, 1)" fill="none" transform="matrix(1 0 0 1 1700 39 )" class="stroke" mask="url(#Clip96)" />
    <path d="M 10.910143714773351 23.581661575173463  C 11.192463421843739 23.862046241243718  11.575370830348728 24.019563577062787  11.974631213691811 24.019563577062787  C 12.373891597034895 24.019563577062787  12.75679972337677 23.862046241243718  13.039119430447156 23.581661575173463  C 13.321439137517544 23.30127690910321  13.480044995930344 22.920992551611846  13.480044995930344 22.524468729664047  C 13.480044995930344 22.524468729664047  13.480044995930344 19.53427903486657  13.480044995930344 19.53427903486657  C 13.480044995930344 19.137755212918773  13.321439137517544 18.75747228126097  13.039119430447156 18.477087615190715  C 12.75679972337677 18.19670294912046  12.373891597034895 18.039184187467836  11.974631213691811 18.039184187467836  C 11.575370830348728 18.039184187467836  11.192463421843739 18.19670294912046  10.910143714773351 18.477087615190715  C 10.627824007702964 18.75747228126097  10.469218149290166 19.137755212918773  10.469218149290166 19.53427903486657  C 10.469218149290166 19.53427903486657  10.469218149290166 22.524468729664047  10.469218149290166 22.524468729664047  C 10.469218149290166 22.920992551611846  10.627824007702964 23.30127690910321  10.910143714773351 23.581661575173463  Z " stroke-width="0" stroke-dasharray="0" stroke="rgba(121, 121, 121, 1)" fill="none" transform="matrix(1 0 0 1 1700 39 )" class="stroke" mask="url(#Clip96)" />
    <path d="M 28.42754097030108 7.162032533339316  C 27.618684249730286 6.471579940974293  26.589879525195883 6.087714007944192  25.523348075469734 6.0784261211947115  C 25.523348075469734 6.0784261211947115  23.445880745662162 6.0784261211947115  23.445880745662162 6.0784261211947115  C 23.445880745662162 6.0784261211947115  20.841515397696952 0.9203485590335966  20.841515397696952 0.9203485590335966  C 20.761934609534062 0.7305513763119806  20.643793889444602 0.5590948577182082  20.494475718736577 0.41669321786584657  C 20.345157548028553 0.27429157801348497  20.167870388400484 0.16400555243053766  19.973695106534652 0.09272725293168015  C 19.77951982466882 0.021448953432822618  19.572629206392556 -0.009289788267010378  19.365951426753455 0.002432064591873829  C 19.159273647114354 0.014153917450758035  18.9572508826642 0.06808455486474448  18.772508493446054 0.16085339646504493  C 18.587766104227907 0.2536222380653454  18.42427535457912 0.38323559902761006  18.292251209220165 0.5415937422113842  C 18.16022706386121 0.6999518853951584  18.06250698619796 0.8836509450852562  18.005199723278665 1.081211813800966  C 17.94789246035937 1.278772682516676  17.932229323966165 1.4859491722299525  17.959187814460414 1.6897940236091422  C 17.986146304954662 1.8936388749883322  18.055146847563076 2.0897711475949703  18.1618791093769 2.2659341533904134  C 18.1618791093769 2.2659341533904134  20.073754390290404 6  20.073754390290404 6  L 9.897161012536687 6  C 9.897161012536687 6  11.80903629345019 2.2659341533904134  11.80903629345019 2.2659341533904134  C 11.955158912307468 1.917437217815657  11.963129302026378 1.526942577619052  11.831348099589054 1.1728504929391772  C 11.69956689715173 0.8187584082593025  11.437790010589051 0.5272837090400794  11.09857446208175 0.35694580142872323  C 10.759358913574449 0.18660789381736706  10.367818192984897 0.15001799713849465  10.002562438409596 0.25452176081033734  C 9.637306683834295 0.35902552448218006  9.325376922989312 0.5968860971437512  9.129400005130142 0.9203485590335966  C 9.129400005130142 0.9203485590335966  6.525036092838707 6.0784261211947115  6.525036092838707 6.0784261211947115  C 6.525036092838707 6.0784261211947115  4.447566250602026 6.0784261211947115  4.447566250602026 6.0784261211947115  C 3.383523451635405 6.094498948316308  2.359371925265332 6.483217683577496  1.5557418648024093 7.176023525113016  C 0.7521118043394868 7.868829366648536  0.22062775063131362 8.821216405697935  0.055027435396833635 9.865213339870621  C -0.11057287983764635 10.909210274043307  0.10034875148065825 11.977750883256359  0.6505919468415943 12.882376240974235  C 1.2008351422025303 13.787001598692111  2.0550526935345674 14.469599296272719  3.06258611649861 14.80977954521993  C 3.06258611649861 14.80977954521993  4.176592157431009 25.9631857380143  4.176592157431009 25.9631857380143  C 4.288928515744939 27.073398204324228  4.813899590507555 28.102165899393945  5.648994056884841 28.848599479741853  C 6.484088523262127 29.59503306008976  7.5693404411787215 30.005534596780578  8.692830991717502 29.999942966657738  C 8.692830991717502 29.999942966657738  21.30819407935792 29.999942966657738  21.30819407935792 29.999942966657738  C 22.4316846298967 30.005534596780578  23.516933317547306 29.59503306008976  24.35202778392459 28.848599479741853  C 25.187122250301876 28.102165899393945  25.712095478575154 27.073398204324228  25.824431836889083 25.9631857380143  C 25.824431836889083 25.9631857380143  26.938437159984595 14.80977954521993  26.938437159984595 14.80977954521993  C 27.9481668049061 14.468589538770885  28.803726621488245 13.783497345383084  29.35357926871755 12.875847349118768  C 29.903431915946854 11.968197352854451  30.112091676881086 10.896566873209746  29.94259889112386 9.850765368442044  C 29.773106105366637 8.804963863674342  29.236397690871875 7.852485125704337  28.42754097030108 7.162032533339316  Z " stroke-width="0" stroke-dasharray="0" stroke="rgba(121, 121, 121, 1)" fill="none" transform="matrix(1 0 0 1 1700 39 )" class="stroke" mask="url(#Clip96)" />
    <path d="M 23.86739456603219 15  C 23.86739456603219 15  22.798552668553846 25.66416847953482  22.798552668553846 25.66416847953482  C 22.761107214847854 26.034239301638127  22.586115167620658 26.377161874087584  22.30775036044983 26.62597306011067  C 22.029385553279003 26.874784246133757  21.66763645433179 27.011617148567876  21.2931396041522 27.009753271860262  C 21.2931396041522 27.009753271860262  8.67777651651178 27.009753271860262  8.67777651651178 27.009753271860262  C 8.303279666332188 27.011617148567876  7.941529131711201 26.874784246133757  7.663164324540373 26.62597306011067  C 7.384799517369547 26.377161874087584  7.209808905816128 26.034239301638127  7.172363452110134 25.66416847953482  C 7.172363452110134 25.66416847953482  6.103520118958015 15  6.103520118958015 15  L 23.86739456603219 15  Z " stroke-width="0" stroke-dasharray="0" stroke="rgba(121, 121, 121, 1)" fill="none" transform="matrix(1 0 0 1 1700 39 )" class="stroke" mask="url(#Clip96)" />
    <path d="M 26.587837010061968 11.620902083066781  C 26.305517302991582 11.901286749137038  25.922608458812817 12.058804797872885  25.523348075469734 12.058804797872885  C 25.523348075469734 12.058804797872885  4.447566250602026 12.058804797872885  4.447566250602026 12.058804797872885  C 4.048305867258943 12.058804797872885  3.6653984587539536 11.901286749137038  3.3830787516835668 11.620902083066781  C 3.10075904461318 11.340517416996525  2.9421530067411585 10.960234485338724  2.9421530067411585 10.563710663390925  C 2.9421530067411585 10.167186841443126  3.10075904461318 9.786903909785325  3.3830787516835668 9.506519243715069  C 3.6653984587539536 9.226134577644812  4.048305867258943 9.068615815992185  4.447566250602026 9.068615815992187  C 4.447566250602026 9.068615815992187  25.523348075469734 9.068615815992187  25.523348075469734 9.068615815992187  C 25.922608458812817 9.068615815992185  26.305517302991582 9.226134577644812  26.587837010061968 9.506519243715069  C 26.870156717132353 9.786903909785325  27.02876113987138 10.167186841443126  27.02876113987138 10.563710663390925  C 27.02876113987138 10.960234485338724  26.870156717132353 11.340517416996525  26.587837010061968 11.620902083066781  Z " stroke-width="0" stroke-dasharray="0" stroke="rgba(121, 121, 121, 1)" fill="none" transform="matrix(1 0 0 1 1700 39 )" class="stroke" mask="url(#Clip96)" />
  </g>
  <style>svg { filter: drop-shadow(0px 4px 2px rgba(0, 0, 0, 0.5019607843137255)); }</style>
</svg>