<?xml version="1.0" encoding="utf-8"?>
<svg version="1.1" xmlns:xlink="http://www.w3.org/1999/xlink" width="38px" height="38px" xmlns="http://www.w3.org/2000/svg">
  <defs>
    <pattern id="BGPattern" patternUnits="userSpaceOnUse" alignment="0 0" imageRepeat="None" />
    <mask fill="white" id="Clip98">
      <path d="M 30 28.513559052536003  C 30 28.124487702914593  29.84896383405528 27.750633472470362  29.578764532270984 27.470887384992924  C 29.578764532270984 27.470887384992924  24.017072445904944 21.949975529445787  24.017072445904944 21.949975529445787  C 26.175937636353964 19.256144333919714  27.221422449881786 15.836912269128593  26.938551432644736 12.395346769834383  C 26.655680415407687 8.953781270540171  25.065953800107014 5.751473801245686  22.49625571650155 3.4468860921693367  C 19.92655763289609 1.1422983830929883  16.57220877175492 -0.0893989268021015  13.122933066869843 0.005057279067082953  C 9.673657361984766 0.0995134849362674  6.391633468337858 1.512943401816229  3.9517141593866714 3.9547163833675016  C 1.5117948504354843 6.396489364918773  0.09943793924804861 9.681006700763609  0.005053439832351279 13.132902913565005  C -0.08933105958334606 16.5847991263664  1.1414312069755281 19.94169637693677  3.4442693876874118 22.513346729582683  C 5.747107568399295 25.084997082228597  8.946984005137631 26.675931455776688  12.385936839079397 26.959017377765743  C 15.824889673021163 27.2421032997548  19.241526026892505 26.195824203176088  21.93331219975917 24.035318864531945  C 21.93331219975917 24.035318864531945  27.450032853621533 29.556230720079085  27.450032853621533 29.556230720079085  C 27.589394481848494 29.69684657894284  27.755195979667924 29.808456057676512  27.93787625116827 29.88462164688785  C 28.120556522668615 29.96078723609919  28.316498535395176 30  28.51439869294626 30  C 28.71229885049734 30  28.908240863223902 29.96078723609919  29.090921134724248 29.88462164688785  C 29.273601406224593 29.808456057676512  29.439402904044023 29.69684657894284  29.578764532270984 29.556230720079085  C 29.84896383405528 29.276484632601647  30 28.902630402157413  30 28.513559052536003  Z M 20.94352036419388 20.959431722289207  C 18.97555841148975 22.92888878884253  16.306429692963988 24.035318864531938  13.523311202808541 24.035318864531945  C 11.447841206352196 24.035318864531952  9.41897960483012 23.419403545860085  7.693289521515166 22.265458250830857  C 5.967599438200212 21.11151295580163  4.622587291319458 19.471366160852856  3.8283393747651786 17.552425217442646  C 3.0340914582108987 15.633484274032435  2.8262799711856488 13.521935722421217  3.2311840580541697 11.484798926061726  C 3.6360881449226907 9.447662129702236  4.635522511259537 7.576431792109694  6.103101326592447 6.107738017512161  C 7.570680141925357 4.639044242914628  9.440489934515783 3.638850579295422  11.476080237941424 3.2336388758558376  C 13.511670541367065 2.8284271724162533  15.62161611034089 3.036396539441087  17.539100289230053 3.831247867589836  C 19.456584468119214 4.626099195738584  21.095486145197945 5.972133184675472  22.248555422353462 7.699134321356799  C 23.40162469950898 9.426135458038127  24.017072445904944 11.456538440517477  24.017072445904944 13.5335852275876  C 24.017072445904944 16.318818128030742  22.91148231689801 18.98997465573588  20.94352036419388 20.959431722289207  Z " fill-rule="evenodd" />
    </mask>
  </defs>
  <g transform="matrix(1 0 0 1 -146 -32 )">
    <path d="M 30 28.513559052536003  C 30 28.124487702914593  29.84896383405528 27.750633472470362  29.578764532270984 27.470887384992924  C 29.578764532270984 27.470887384992924  24.017072445904944 21.949975529445787  24.017072445904944 21.949975529445787  C 26.175937636353964 19.256144333919714  27.221422449881786 15.836912269128593  26.938551432644736 12.395346769834383  C 26.655680415407687 8.953781270540171  25.065953800107014 5.751473801245686  22.49625571650155 3.4468860921693367  C 19.92655763289609 1.1422983830929883  16.57220877175492 -0.0893989268021015  13.122933066869843 0.005057279067082953  C 9.673657361984766 0.0995134849362674  6.391633468337858 1.512943401816229  3.9517141593866714 3.9547163833675016  C 1.5117948504354843 6.396489364918773  0.09943793924804861 9.681006700763609  0.005053439832351279 13.132902913565005  C -0.08933105958334606 16.5847991263664  1.1414312069755281 19.94169637693677  3.4442693876874118 22.513346729582683  C 5.747107568399295 25.084997082228597  8.946984005137631 26.675931455776688  12.385936839079397 26.959017377765743  C 15.824889673021163 27.2421032997548  19.241526026892505 26.195824203176088  21.93331219975917 24.035318864531945  C 21.93331219975917 24.035318864531945  27.450032853621533 29.556230720079085  27.450032853621533 29.556230720079085  C 27.589394481848494 29.69684657894284  27.755195979667924 29.808456057676512  27.93787625116827 29.88462164688785  C 28.120556522668615 29.96078723609919  28.316498535395176 30  28.51439869294626 30  C 28.71229885049734 30  28.908240863223902 29.96078723609919  29.090921134724248 29.88462164688785  C 29.273601406224593 29.808456057676512  29.439402904044023 29.69684657894284  29.578764532270984 29.556230720079085  C 29.84896383405528 29.276484632601647  30 28.902630402157413  30 28.513559052536003  Z M 20.94352036419388 20.959431722289207  C 18.97555841148975 22.92888878884253  16.306429692963988 24.035318864531938  13.523311202808541 24.035318864531945  C 11.447841206352196 24.035318864531952  9.41897960483012 23.419403545860085  7.693289521515166 22.265458250830857  C 5.967599438200212 21.11151295580163  4.622587291319458 19.471366160852856  3.8283393747651786 17.552425217442646  C 3.0340914582108987 15.633484274032435  2.8262799711856488 13.521935722421217  3.2311840580541697 11.484798926061726  C 3.6360881449226907 9.447662129702236  4.635522511259537 7.576431792109694  6.103101326592447 6.107738017512161  C 7.570680141925357 4.639044242914628  9.440489934515783 3.638850579295422  11.476080237941424 3.2336388758558376  C 13.511670541367065 2.8284271724162533  15.62161611034089 3.036396539441087  17.539100289230053 3.831247867589836  C 19.456584468119214 4.626099195738584  21.095486145197945 5.972133184675472  22.248555422353462 7.699134321356799  C 23.40162469950898 9.426135458038127  24.017072445904944 11.456538440517477  24.017072445904944 13.5335852275876  C 24.017072445904944 16.318818128030742  22.91148231689801 18.98997465573588  20.94352036419388 20.959431722289207  Z " fill-rule="nonzero" fill="rgba(250, 218, 221, 1)" stroke="none" transform="matrix(1 0 0 1 150 32 )" class="fill" />
    <path d="M 30 28.513559052536003  C 30 28.124487702914593  29.84896383405528 27.750633472470362  29.578764532270984 27.470887384992924  C 29.578764532270984 27.470887384992924  24.017072445904944 21.949975529445787  24.017072445904944 21.949975529445787  C 26.175937636353964 19.256144333919714  27.221422449881786 15.836912269128593  26.938551432644736 12.395346769834383  C 26.655680415407687 8.953781270540171  25.065953800107014 5.751473801245686  22.49625571650155 3.4468860921693367  C 19.92655763289609 1.1422983830929883  16.57220877175492 -0.0893989268021015  13.122933066869843 0.005057279067082953  C 9.673657361984766 0.0995134849362674  6.391633468337858 1.512943401816229  3.9517141593866714 3.9547163833675016  C 1.5117948504354843 6.396489364918773  0.09943793924804861 9.681006700763609  0.005053439832351279 13.132902913565005  C -0.08933105958334606 16.5847991263664  1.1414312069755281 19.94169637693677  3.4442693876874118 22.513346729582683  C 5.747107568399295 25.084997082228597  8.946984005137631 26.675931455776688  12.385936839079397 26.959017377765743  C 15.824889673021163 27.2421032997548  19.241526026892505 26.195824203176088  21.93331219975917 24.035318864531945  C 21.93331219975917 24.035318864531945  27.450032853621533 29.556230720079085  27.450032853621533 29.556230720079085  C 27.589394481848494 29.69684657894284  27.755195979667924 29.808456057676512  27.93787625116827 29.88462164688785  C 28.120556522668615 29.96078723609919  28.316498535395176 30  28.51439869294626 30  C 28.71229885049734 30  28.908240863223902 29.96078723609919  29.090921134724248 29.88462164688785  C 29.273601406224593 29.808456057676512  29.439402904044023 29.69684657894284  29.578764532270984 29.556230720079085  C 29.84896383405528 29.276484632601647  30 28.902630402157413  30 28.513559052536003  Z " stroke-width="0" stroke-dasharray="0" stroke="rgba(121, 121, 121, 1)" fill="none" transform="matrix(1 0 0 1 150 32 )" class="stroke" mask="url(#Clip98)" />
    <path d="M 20.94352036419388 20.959431722289207  C 18.97555841148975 22.92888878884253  16.306429692963988 24.035318864531938  13.523311202808541 24.035318864531945  C 11.447841206352196 24.035318864531952  9.41897960483012 23.419403545860085  7.693289521515166 22.265458250830857  C 5.967599438200212 21.11151295580163  4.622587291319458 19.471366160852856  3.8283393747651786 17.552425217442646  C 3.0340914582108987 15.633484274032435  2.8262799711856488 13.521935722421217  3.2311840580541697 11.484798926061726  C 3.6360881449226907 9.447662129702236  4.635522511259537 7.576431792109694  6.103101326592447 6.107738017512161  C 7.570680141925357 4.639044242914628  9.440489934515783 3.638850579295422  11.476080237941424 3.2336388758558376  C 13.511670541367065 2.8284271724162533  15.62161611034089 3.036396539441087  17.539100289230053 3.831247867589836  C 19.456584468119214 4.626099195738584  21.095486145197945 5.972133184675472  22.248555422353462 7.699134321356799  C 23.40162469950898 9.426135458038127  24.017072445904944 11.456538440517477  24.017072445904944 13.5335852275876  C 24.017072445904944 16.318818128030742  22.91148231689801 18.98997465573588  20.94352036419388 20.959431722289207  Z " stroke-width="0" stroke-dasharray="0" stroke="rgba(121, 121, 121, 1)" fill="none" transform="matrix(1 0 0 1 150 32 )" class="stroke" mask="url(#Clip98)" />
  </g>
  <style>svg { filter: drop-shadow(0px 4px 2px rgba(0, 0, 0, 0.5019607843137255)); }</style>
</svg>